<svg width="1200" height="760" viewBox="0 0 1200 760" fill="none" xmlns="http://www.w3.org/2000/svg">
  <defs>
    <linearGradient id="floor" x1="0" y1="0" x2="0" y2="1">
      <stop offset="0" stop-color="#8C95A9" />
      <stop offset="1" stop-color="#586077" />
    </linearGradient>
    <linearGradient id="wall" x1="0" y1="0" x2="1" y2="1">
      <stop offset="0" stop-color="#48506A" />
      <stop offset="1" stop-color="#30374C" />
    </linearGradient>
    <linearGradient id="bedBase" x1="0" y1="0" x2="1" y2="1">
      <stop offset="0" stop-color="#71819B" />
      <stop offset="1" stop-color="#4C5870" />
    </linearGradient>
    <linearGradient id="mattress" x1="0" y1="0" x2="1" y2="1">
      <stop offset="0" stop-color="#C9D5E8" />
      <stop offset="1" stop-color="#A5B4CA" />
    </linearGradient>
    <radialGradient id="lamp" cx="0" cy="0" r="1" gradientUnits="userSpaceOnUse" gradientTransform="translate(600 40) rotate(90) scale(140 280)">
      <stop stop-color="#A6D9FF" stop-opacity="0.45" />
      <stop offset="1" stop-color="#A6D9FF" stop-opacity="0" />
    </radialGradient>
    <filter id="shadow" x="-20%" y="-20%" width="140%" height="140%">
      <feDropShadow dx="0" dy="8" stdDeviation="8" flood-color="#111827" flood-opacity="0.35" />
    </filter>
  </defs>

  <rect x="20" y="20" width="1160" height="720" rx="28" fill="#242B3E" />
  <path d="M80 98H1120V660H80V98Z" fill="url(#floor)" />
  <path d="M50 68H1150V108H50V68Z" fill="url(#wall)" />
  <path d="M48 652H1152V694H48V652Z" fill="url(#wall)" />
  <path d="M50 108H90V652H50V108Z" fill="url(#wall)" />
  <path d="M1110 108H1150V652H1110V108Z" fill="url(#wall)" />
  <ellipse cx="600" cy="120" rx="220" ry="100" fill="url(#lamp)" />

  <g opacity="0.42">
    <path d="M82 188H1118" stroke="#A5AEC0" stroke-width="1" />
    <path d="M82 278H1118" stroke="#A5AEC0" stroke-width="1" />
    <path d="M82 368H1118" stroke="#A5AEC0" stroke-width="1" />
    <path d="M82 458H1118" stroke="#A5AEC0" stroke-width="1" />
    <path d="M82 548H1118" stroke="#A5AEC0" stroke-width="1" />
    <path d="M220 100V660" stroke="#A5AEC0" stroke-width="1" />
    <path d="M380 100V660" stroke="#A5AEC0" stroke-width="1" />
    <path d="M540 100V660" stroke="#A5AEC0" stroke-width="1" />
    <path d="M700 100V660" stroke="#A5AEC0" stroke-width="1" />
    <path d="M860 100V660" stroke="#A5AEC0" stroke-width="1" />
    <path d="M1020 100V660" stroke="#A5AEC0" stroke-width="1" />
  </g>

  <g filter="url(#shadow)">
    <g transform="translate(180 180)">
      <rect x="0" y="0" width="110" height="180" rx="18" fill="url(#bedBase)" />
      <rect x="10" y="26" width="90" height="130" rx="14" fill="url(#mattress)" />
      <rect x="22" y="12" width="66" height="24" rx="8" fill="#D7E3F4" />
    </g>
    <g transform="translate(430 180)">
      <rect x="0" y="0" width="110" height="180" rx="18" fill="url(#bedBase)" />
      <rect x="10" y="26" width="90" height="130" rx="14" fill="url(#mattress)" />
      <rect x="22" y="12" width="66" height="24" rx="8" fill="#D7E3F4" />
    </g>
    <g transform="translate(680 180)">
      <rect x="0" y="0" width="110" height="180" rx="18" fill="url(#bedBase)" />
      <rect x="10" y="26" width="90" height="130" rx="14" fill="url(#mattress)" />
      <rect x="22" y="12" width="66" height="24" rx="8" fill="#D7E3F4" />
    </g>
    <g transform="translate(930 180)">
      <rect x="0" y="0" width="110" height="180" rx="18" fill="url(#bedBase)" />
      <rect x="10" y="26" width="90" height="130" rx="14" fill="url(#mattress)" />
      <rect x="22" y="12" width="66" height="24" rx="8" fill="#D7E3F4" />
    </g>

    <g transform="translate(180 420)">
      <rect x="0" y="0" width="110" height="180" rx="18" fill="url(#bedBase)" />
      <rect x="10" y="26" width="90" height="130" rx="14" fill="url(#mattress)" />
      <rect x="22" y="12" width="66" height="24" rx="8" fill="#D7E3F4" />
    </g>
    <g transform="translate(430 420)">
      <rect x="0" y="0" width="110" height="180" rx="18" fill="url(#bedBase)" />
      <rect x="10" y="26" width="90" height="130" rx="14" fill="url(#mattress)" />
      <rect x="22" y="12" width="66" height="24" rx="8" fill="#D7E3F4" />
    </g>
    <g transform="translate(680 420)">
      <rect x="0" y="0" width="110" height="180" rx="18" fill="url(#bedBase)" />
      <rect x="10" y="26" width="90" height="130" rx="14" fill="url(#mattress)" />
      <rect x="22" y="12" width="66" height="24" rx="8" fill="#D7E3F4" />
    </g>
    <g transform="translate(930 420)">
      <rect x="0" y="0" width="110" height="180" rx="18" fill="url(#bedBase)" />
      <rect x="10" y="26" width="90" height="130" rx="14" fill="url(#mattress)" />
      <rect x="22" y="12" width="66" height="24" rx="8" fill="#D7E3F4" />
    </g>
  </g>
</svg>
